<svg xmlns="http://www.w3.org/2000/svg" viewBox="0 0 60 24" fill="#ff000f"><path d="M12.3 2.4L8.6 9.3h4.7l3.7-6.9v17.2h4.8V2.4h-9.5zM27 2.4l-3.7 6.9h4.7l3.7-6.9v17.2h4.8V2.4H27zm32.4 0h-4.8v17.2h4.8V2.4zM40.5 2.4c-3.8 0-6.8 3-6.8 6.9 0 3.8 3 6.9 6.8 6.9 1.2 0 2.3-.3 3.3-.9v-4.7c-.9.8-2 1.2-3.3 1.2-1.9 0-3.3-1.4-3.3-3.4s1.5-3.4 3.3-3.4c1.5 0 2.7.7 3.3 1.8V2.8c-.9-.4-2-.7-3.3-.7L40.5 2.4zM0 9.8l3.3 9.8h5.3L5.3 9.8h1.8c2.3 0 3.4 1 3.4 2.9 0 1.9-1.1 2.9-3.4 2.9H5.3v4.1h1.9c4.2 0 8-2.3 8-7 0-4.7-3.7-7.1-8-7.1H0v.1zm16.8 0l-2.3 4.4h2.5l1.1-2.1 1.1 2.1h2.5l-2.3-4.4v-.1h-2.6z"/></svg>