<svg role="img" viewBox="0 0 24 24" xmlns="http://www.w3.org/2000/svg" fill="#007db8"><title>Dell</title><path d="M14.42 6.022a5.718 5.718 0 013.482-.936c2.01 0 3.783.9 4.853 2.26l-1.876 1.326A4.13 4.13 0 0017.902 7.2c-1.125 0-2.134.428-2.846 1.116a4.37 4.37 0 000 6.25c.712.687 1.72 1.116 2.846 1.116a4.13 4.13 0 003.022-1.272l1.876 1.326a5.718 5.718 0 01-4.853 2.26 5.718 5.718 0 01-3.482-.936 5.457 5.457 0 01-2.036-2.442 6.067 6.067 0 01-.624-2.724c0-.974.217-1.896.624-2.724a5.457 5.457 0 012.036-2.442zm-9.36 0a5.718 5.718 0 013.482-.936c2.01 0 3.783.9 4.853 2.26l-1.876 1.326A4.13 4.13 0 008.542 7.2c-1.125 0-2.134.428-2.846 1.116a4.37 4.37 0 000 6.25c.712.687 1.72 1.116 2.846 1.116 1.125 0 2.134-.428 2.846-1.116l1.876 1.326a5.718 5.718 0 01-4.853 2.26 5.718 5.718 0 01-3.482-.936 5.457 5.457 0 01-2.036-2.442 6.067 6.067 0 01-.624-2.724c0-.974.217-1.896.624-2.724a5.457 5.457 0 012.036-2.442z"/></svg>