<svg xmlns="http://www.w3.org/2000/svg" viewBox="0 0 100 20" fill="#e1251b"><path d="M0 5.5h3.2v4.5h3.9V5.5h3.2v13.4H7.1v-5.1H3.2v5.1H0V5.5zm12.6 0h3.2v13.4h-3.2V5.5zm5.7 0h2.9l5.1 7.8h.1V5.5h3v13.4h-2.8l-5.2-7.9h-.1v7.9h-3V5.5zm15.6 0h3.2v13.4h-3.2V5.5zm11.2 0c3.3 0 5.8 2.3 5.8 5.7v2c0 3.4-2.5 5.7-5.8 5.7h-5.7V5.5h5.7zm-.4 10.5c1.5 0 2.6-1 2.6-2.7v-2c0-1.7-1.1-2.7-2.6-2.7h-2.3v7.4h2.3zM61 5.5h3.2v13.4H61V5.5zm6.1 0h3l5.4 7.6h.1V5.5h3v13.4h-2.9l-5.5-7.7h-.1v7.7h-3V5.5zm16.4 3.4c-1.6 0-2.9 1.1-2.9 2.5 0 2.8 5.7 1.4 5.7 5.3 0 1.9-1.6 3.5-4.1 3.5-1.9 0-3.4-.7-4.3-1.8l1.5-1.8c.7.8 1.7 1.3 2.8 1.3 1.3 0 2.2-.7 2.2-1.8 0-2.6-5.7-1.3-5.7-5.1 0-1.9 1.5-3.4 3.8-3.4 1.6 0 3 .5 3.9 1.5l-1.4 1.8c-.6-.7-1.4-1-2.5-1z"/></svg>