<svg xmlns="http://www.w3.org/2000/svg" viewBox="0 0 100 20" fill="#f80000"><path d="M11.6 5.5c-4 0-7.1 3-7.1 6.9s3.1 6.9 7.1 6.9 7.1-3 7.1-6.9-3.1-6.9-7.1-6.9zm0 10.8c-2.1 0-3.8-1.7-3.8-3.9s1.7-3.9 3.8-3.9 3.8 1.7 3.8 3.9-1.7 3.9-3.8 3.9zM25.2 5.5c-4 0-7.1 3-7.1 6.9s3.1 6.9 7.1 6.9 7.1-3 7.1-6.9-3.1-6.9-7.1-6.9zm0 10.8c-2.1 0-3.8-1.7-3.8-3.9s1.7-3.9 3.8-3.9 3.8 1.7 3.8 3.9-1.7 3.9-3.8 3.9zM38.7 5.5v13.4h7.8v-3.2h-4.5V5.5h-3.3zM51.2 5.5c-2.8 0-4.6 1.4-4.6 3.6 0 2.5 2.2 3.2 4.6 3.8 1.4.4 2.1.7 2.1 1.3 0 .6-.5 1-1.5 1-.9 0-2.1-.4-3.1-1.1l-1.8 2.4c1.4 1.2 3.3 1.7 4.9 1.7 2.8 0 4.8-1.3 4.8-3.6 0-2.7-2.2-3.3-4.6-3.9-1.3-.3-2-.6-2-1.2 0-.5.5-.9 1.4-.9 1 0 2.2.4 3 1l1.6-2.4c-1.2-1-2.9-1.7-4.8-1.7zM64.2 5.5l-4.7 13.4h3.3l.9-2.9h4.9l.9 2.9h3.3L68 5.5h-3.8zm-.3 8l1.5-4.7h.1l1.5 4.7h-3.1zM76.1 5.5v13.4h3.3V9.9h.1l3.6 8.9h3.7l3.6-8.9h.1v8.9h3.3V5.5h-4.9l-3.3 8.4h-.1l-3.3-8.4h-4.9z"/></svg>