<svg xmlns="http://www.w3.org/2000/svg" viewBox="0 0 140 30" fill="#3dcd58"><path d="M12.5 8c-3.6 0-6.5 2.8-6.5 6.5s2.9 6.5 6.5 6.5c2.2 0 4-1 5.2-2.6l-1.8-1.5c-.8 1.2-2.2 2-3.8 2-2.5 0-4.4-1.9-4.4-4.4s1.9-4.4 4.4-4.4c1.6 0 3 1 3.8 2.3l1.8-1.5c-1.2-1.7-3.2-2.9-5.5-2.9zM25 8c-3.5 0-6.3 2.7-6.3 6.2 0 3.6 2.8 6.3 6.3 6.3s6.3-2.7 6.3-6.3C31.3 10.7 28.5 8 25 8zm0 10.4c-2.3 0-4.1-1.8-4.1-4.2 0-2.3 1.8-4.1 4.1-4.1s4.1 1.8 4.1 4.1c0 2.4-1.8 4.2-4.1 4.2zM36.8 8.2h2.1v12.4h-2.1V8.2zM42.6 8.2h2.1v10.3h5.3v2H42.6v-12.3zM52 8.2h7.8v1.9h-5.7v3h5.3v1.9h-5.3v3.7h5.7v1.9H52V8.2zM66.5 10.3h-3.5v-2h9.1v2h-3.5v10.3h-2.1V10.3zM77.5 8c-3.5 0-6.3 2.7-6.3 6.2 0 3.6 2.8 6.3 6.3 6.3s6.3-2.7 6.3-6.3C83.8 10.7 81 8 77.5 8zm0 10.4c-2.3 0-4.1-1.8-4.1-4.2 0-2.3 1.8-4.1 4.1-4.1s4.1 1.8 4.1 4.1c0 2.4-1.8 4.2-4.1 4.2zM90.8 8c-3.6 0-6.5 2.8-6.5 6.5s2.9 6.5 6.5 6.5c2.2 0 4-1 5.2-2.6l-1.8-1.5c-.8 1.2-2.2 2-3.8 2-2.5 0-4.4-1.9-4.4-4.4s1.9-4.4 4.4-4.4c1.6 0 3 1 3.8 2.3l1.8-1.5c-1.2-1.7-3.2-2.9-5.5-2.9zM104.5 10.1c1.6 0 2.9.8 3.6 2l1.8-1.1c-1.1-1.8-3.1-3.1-5.6-3.1-3.6 0-6.5 2.8-6.5 6.5s2.9 6.5 6.5 6.5c2.3 0 4.3-1.2 5.4-3l-1.8-1.1c-.8 1.3-2.1 2.1-3.7 2.1-2.5 0-4.4-1.9-4.4-4.4s2-4.4 4.4-4.4zM114.3 8.2h2.1v4.9h5.2v-4.9h2.1v12.4h-2.1v-5.5h-5.2v5.5h-2.1V8.2zM129.5 8.2h7.8v1.9h-5.7v3h5.3v1.9h-5.3v3.7h5.7v1.9h-7.8V8.2z"/></svg>