<svg role="img" viewBox="0 0 24 24" xmlns="http://www.w3.org/2000/svg" fill="#009999"><title>Siemens</title><path d="M23.84 13.26H13.02v-2.52h10.82c.26 0 .5-.21.5-.5V1.08c0-.28-.22-.5-.5-.5H1.08c-.28 0-.5.22-.5.5v9.66c0 .28.22.5.5.5h3.22v2.52H1.08c-1.34 0-2.44-1.1-2.44-2.44V1.08C-1.36-.26-.26-1.36 1.08-1.36h21.84c1.34 0 2.44 1.1 2.44 2.44v9.16c0 1.34-1.1 2.44-2.44 2.44zM14.62 5.64H9.9c-.28 0-.5.22-.5.5v4.14c0 .28.22.5.5.5h4.72c.28 0 .5-.22.5-.5V6.14c0-.28-.22-.5-.5-.5zm-.5 4.14h-3.72V6.64h3.72v3.14zM1.58 17.16h5.32c.28 0 .5-.22.5-.5v-4.14c0-.28-.22-.5-.5-.5H1.58c-.28 0-.5.22-.5.5v4.14c0 .28.22.5.5.5zm.5-4.14h4.32v3.14H2.08v-3.14zm7.72 0h3.72v3.14H9.8v-3.14zm-.5-1.14c0-.28.22-.5.5-.5h4.72c.28 0 .5.22.5.5v4.14c0 .28-.22.5-.5.5H9.8c-.28 0-.5-.22-.5-.5v-4.14zm10.62-1h-4.72c-.28 0-.5.22-.5.5v4.14c0 .28.22.5.5.5h4.72c.28 0 .5-.22.5-.5v-4.14c0-.28-.22-.5-.5-.5zm-.5 4.14h-3.72v-3.14h3.72v3.14zM1.58 23.24h4.72c.28 0 .5-.22.5-.5v-4.14c0-.28-.22-.5-.5-.5H1.58c-.28 0-.5.22-.5.5v4.14c0 .28.22.5.5.5zm.5-4.14h3.72v3.14H2.08v-3.14zm7.22 3.14H5.58v-3.14h3.72v3.14zm-.5-4.14c0-.28.22-.5.5-.5h4.72c.28 0 .5.22.5.5v4.14c0 .28-.22.5-.5.5H9.8c-.28 0-.5-.22-.5-.5v-4.14zm7.22 4.14h-3.72v-3.14h3.72v3.14zm-.5-4.14c0-.28.22-.5.5-.5h4.72c.28 0 .5.22.5.5v4.14c0 .28-.22.5-.5.5h-4.72c-.28 0-.5-.22-.5-.5v-4.14zm7.22 4.14H19.1v-3.14h3.72v3.14z"/></svg>